<?xml version="1.0" encoding="UTF-8"?> <svg xmlns="http://www.w3.org/2000/svg" width="224" height="67" viewBox="0 0 224 67" fill="none"><path d="M13.3243 37.4748C13.6997 35.8849 12.7151 34.2916 11.1252 33.9162C9.53521 33.5407 7.94194 34.5253 7.5665 36.1153C7.19107 37.7052 8.17564 39.2985 9.7656 39.6739C11.3556 40.0494 12.9488 39.0648 13.3243 37.4748Z" fill="white"></path><path d="M18.1768 43.5273C19.613 43.5273 20.7773 42.363 20.7773 40.9268C20.7773 39.4905 19.613 38.3262 18.1768 38.3262C16.7405 38.3262 15.5762 39.4905 15.5762 40.9268C15.5762 42.363 16.7405 43.5273 18.1768 43.5273Z" fill="white"></path><path d="M27.8599 41.5803C27.8599 42.7831 26.8847 43.7583 25.6819 43.7583C24.4791 43.7583 23.5039 42.7831 23.5039 41.5803C23.5039 40.3776 24.4791 39.4023 25.6819 39.4023C26.8847 39.4023 27.8599 40.3776 27.8599 41.5803Z" fill="white"></path><path d="M26.403 66.6087C28.5035 66.6087 30.2063 64.9058 30.2063 62.8053C30.2063 60.7048 28.5035 59.002 26.403 59.002C24.3024 59.002 22.5996 60.7048 22.5996 62.8053C22.5996 64.9058 24.3024 66.6087 26.403 66.6087Z" fill="white"></path><path d="M21.1301 8.48245C23.0708 7.67858 23.9923 5.45367 23.1885 3.51299C22.3846 1.5723 20.1597 0.650735 18.219 1.45461C16.2783 2.25849 15.3567 4.48339 16.1606 6.42408C16.9645 8.36476 19.1894 9.28633 21.1301 8.48245Z" fill="white"></path><path d="M9.95489 14.0758C12.3786 14.0758 14.3434 12.111 14.3434 9.68731C14.3434 7.26362 12.3786 5.29883 9.95489 5.29883C7.5312 5.29883 5.56641 7.26362 5.56641 9.68731C5.56641 12.111 7.5312 14.0758 9.95489 14.0758Z" fill="white"></path><path d="M8.55928 19.7573C8.89579 17.6838 7.48773 15.7302 5.41429 15.3937C3.34085 15.0572 1.38721 16.4652 1.0507 18.5387C0.714197 20.6121 2.12226 22.5658 4.1957 22.9023C6.26913 23.2388 8.22278 21.8307 8.55928 19.7573Z" fill="white"></path><path d="M5.21837 32.4066C7.15635 32.3461 8.67836 30.726 8.61785 28.788C8.55735 26.85 6.93725 25.328 4.99927 25.3885C3.06128 25.449 1.53928 27.0691 1.59979 29.0071C1.66029 30.9451 3.28038 32.4671 5.21837 32.4066Z" fill="white"></path><path d="M39.9799 11.7192C40.2416 10.1065 39.1465 8.58703 37.5338 8.3253C35.9211 8.06358 34.4016 9.15874 34.1399 10.7714C33.8782 12.3841 34.9733 13.9036 36.586 14.1653C38.1987 14.427 39.7182 13.3319 39.9799 11.7192Z" fill="white"></path><path d="M43.4348 18.7307C43.7648 17.333 42.8993 15.9323 41.5015 15.6023C40.1037 15.2722 38.7031 16.1378 38.373 17.5355C38.043 18.9333 38.9085 20.334 40.3063 20.664C41.704 20.9941 43.1047 20.1285 43.4348 18.7307Z" fill="white"></path><path d="M29.4932 9.52352C31.4322 9.52352 33.004 7.95169 33.004 6.01274C33.004 4.07378 31.4322 2.50195 29.4932 2.50195C27.5543 2.50195 25.9824 4.07378 25.9824 6.01274C25.9824 7.95169 27.5543 9.52352 29.4932 9.52352Z" fill="white"></path><path d="M35.992 62.4762C38.4157 62.4762 40.3805 60.5114 40.3805 58.0877C40.3805 55.664 38.4157 53.6992 35.992 53.6992C33.5683 53.6992 31.6035 55.664 31.6035 58.0877C31.6035 60.5114 33.5683 62.4762 35.992 62.4762Z" fill="white"></path><path d="M41.1569 52.4329C43.2574 52.4329 44.9602 50.7301 44.9602 48.6295C44.9602 46.529 43.2574 44.8262 41.1569 44.8262C39.0563 44.8262 37.3535 46.529 37.3535 48.6295C37.3535 50.7301 39.0563 52.4329 41.1569 52.4329Z" fill="white"></path><path d="M42.2159 42.1573C44.0073 41.4153 44.858 39.3615 44.116 37.5701C43.3739 35.7787 41.3202 34.9281 39.5288 35.6701C37.7374 36.4121 36.8867 38.4659 37.6287 40.2573C38.3708 42.0487 40.4245 42.8994 42.2159 42.1573Z" fill="white"></path><path d="M37.6892 32.9316C38.8444 31.7763 38.8444 29.9034 37.6892 28.7481C36.534 27.5929 34.661 27.5929 33.5058 28.7481C32.3506 29.9033 32.3506 31.7763 33.5058 32.9316C34.661 34.0868 36.534 34.0868 37.6892 32.9316Z" fill="white"></path><path d="M11.8126 57.2502C12.188 55.6603 11.2034 54.067 9.61346 53.6915C8.0235 53.3161 6.43022 54.3007 6.05479 55.8906C5.67935 57.4806 6.66392 59.0739 8.25389 59.4493C9.84385 59.8248 11.4371 58.8402 11.8126 57.2502Z" fill="white"></path><path d="M5.04199 52.2715C6.47825 52.2715 7.64257 51.1072 7.64257 49.6709C7.64257 48.2346 6.47825 47.0703 5.04199 47.0703C3.60573 47.0703 2.44141 48.2346 2.44141 49.6709C2.44141 51.1072 3.60573 52.2715 5.04199 52.2715Z" fill="white"></path><path d="M30.4237 27.1334C30.6538 25.7156 29.691 24.3798 28.2733 24.1497C26.8556 23.9196 25.5197 24.8824 25.2897 26.3002C25.0596 27.7179 26.0223 29.0537 27.4401 29.2838C28.8578 29.5139 30.1936 28.5511 30.4237 27.1334Z" fill="white"></path><path d="M22.1706 27.2557C22.8272 26.2478 22.5423 24.8985 21.5345 24.242C20.5266 23.5855 19.1773 23.8703 18.5208 24.8782C17.8643 25.8861 18.1491 27.2353 19.157 27.8919C20.1649 28.5484 21.5141 28.2636 22.1706 27.2557Z" fill="white"></path><path d="M16.4874 65.2735C18.4263 65.2735 19.9981 63.7017 19.9981 61.7627C19.9981 59.8238 18.4263 58.252 16.4874 58.252C14.5484 58.252 12.9766 59.8238 12.9766 61.7627C12.9766 63.7017 14.5484 65.2735 16.4874 65.2735Z" fill="white"></path><path d="M69.4412 46.3876C67.8809 45.9 66.6131 45.2498 65.7029 44.4046C65.2803 44.047 65.0527 43.5594 65.0527 43.0068C65.0527 42.5842 65.1503 42.2591 65.4103 41.9666C65.6379 41.674 65.8979 41.544 66.223 41.544C66.5481 41.544 66.9382 41.7065 67.3933 41.9991C69.4412 43.4944 71.7492 44.2746 74.3498 44.2746C76.1702 44.2746 77.568 43.917 78.5758 43.2344C79.551 42.5517 80.0386 41.5765 80.0386 40.2762C80.0386 39.2685 79.5835 38.5208 78.6733 38.0007C77.7631 37.5131 76.3003 37.0255 74.2848 36.5704C72.3669 36.1478 70.774 35.6927 69.5387 35.1725C68.3035 34.6524 67.3282 33.9373 66.6456 33.0271C65.9629 32.1169 65.6054 30.9791 65.6054 29.5813C65.6054 28.1835 65.9954 26.9482 66.7431 25.8755C67.5233 24.8027 68.5635 23.9575 69.9613 23.3399C71.3266 22.7223 72.887 22.4297 74.6424 22.4297C76.2677 22.4297 77.7631 22.6572 79.1284 23.1123C80.4937 23.5674 81.664 24.2501 82.6392 25.1278C83.0943 25.5179 83.3218 25.973 83.3218 26.5256C83.3218 26.9157 83.1918 27.2733 82.9643 27.5658C82.7367 27.8584 82.4441 28.0209 82.1191 28.0209C81.8265 28.0209 81.4364 27.8584 80.9813 27.5658C79.9411 26.7532 78.9333 26.2005 78.0231 25.843C77.1129 25.4854 75.9752 25.3228 74.6749 25.3228C72.9195 25.3228 71.5542 25.6804 70.5465 26.3956C69.5712 27.1107 69.0836 28.1185 69.0836 29.3862C69.0836 30.4915 69.5062 31.3042 70.3839 31.8568C71.2616 32.4094 72.6594 32.9295 74.5774 33.3846C76.5928 33.8398 78.2182 34.3274 79.4535 34.815C80.6887 35.3026 81.6965 35.9852 82.4441 36.8304C83.1918 37.6756 83.5494 38.7809 83.5494 40.1462C83.5494 41.5115 83.1593 42.7468 82.4116 43.787C81.6314 44.8597 80.5587 45.6724 79.1934 46.2575C77.7956 46.8427 76.2027 47.1352 74.4148 47.1352C72.6594 47.1027 71.0016 46.8752 69.4412 46.3876Z" fill="white"></path><path d="M119.435 22.7562C119.695 22.5611 120.02 22.4961 120.345 22.4961C120.768 22.4961 121.158 22.6261 121.483 22.9187C121.808 23.2113 121.971 23.5688 121.971 24.0239C121.971 24.284 121.938 24.5115 121.841 24.7066L114.267 45.9013C114.104 46.2914 113.844 46.584 113.519 46.779C113.161 46.9741 112.804 47.1041 112.381 47.1041C111.991 47.1041 111.633 47.0066 111.276 46.779C110.918 46.584 110.691 46.2914 110.561 45.9013L104.319 28.2174L97.9479 45.9013C97.8178 46.2914 97.5578 46.584 97.2327 46.779C96.8751 46.9741 96.5175 47.1041 96.1275 47.1041C95.7049 47.1041 95.3473 47.0066 95.0222 46.779C94.6971 46.584 94.4371 46.2914 94.2745 45.9013L86.7003 24.7066C86.6028 24.5115 86.5703 24.284 86.5703 24.0239C86.5703 23.5688 86.7329 23.2113 87.0904 22.9187C87.448 22.6261 87.8381 22.4961 88.3257 22.4961C88.6833 22.4961 88.9758 22.5936 89.2684 22.7562C89.561 22.9512 89.756 23.2113 89.9186 23.5688L96.2575 41.8054L102.694 23.7314C102.824 23.3413 103.052 23.0487 103.377 22.8537C103.669 22.6586 104.027 22.5286 104.384 22.5286C104.742 22.5286 105.067 22.6261 105.392 22.8537C105.685 23.0812 105.912 23.3738 106.075 23.7639L112.381 41.968L118.818 23.5688C118.98 23.2113 119.175 22.9187 119.435 22.7562Z" fill="white"></path><path d="M146.03 45.4787C146.03 45.9013 145.868 46.2914 145.51 46.584C145.153 46.8766 144.762 47.0391 144.34 47.0391C144.047 47.0391 143.755 46.9416 143.495 46.779C143.235 46.6165 143.04 46.3564 142.91 46.0314L140.634 40.8952H128.086L125.811 46.0314C125.681 46.3564 125.453 46.584 125.193 46.779C124.933 46.9416 124.64 47.0391 124.348 47.0391C123.893 47.0391 123.47 46.8766 123.145 46.584C122.788 46.2914 122.625 45.9338 122.625 45.4787C122.625 45.2837 122.69 45.0562 122.788 44.7961L132.442 23.6338C132.605 23.2763 132.865 22.9837 133.222 22.7887C133.58 22.5936 133.938 22.4961 134.328 22.4961C134.718 22.4961 135.075 22.5936 135.433 22.7887C135.79 22.9837 136.051 23.2763 136.213 23.6338L145.868 44.7961C145.965 45.0562 146.03 45.2837 146.03 45.4787ZM129.322 38.0671H139.366L134.328 26.722L129.322 38.0671Z" fill="white"></path><path d="M171.872 45.4787C171.872 45.9013 171.71 46.2914 171.352 46.584C170.994 46.8766 170.604 47.0391 170.182 47.0391C169.889 47.0391 169.597 46.9416 169.336 46.779C169.076 46.6165 168.881 46.3564 168.751 46.0314L166.476 40.8952H153.928L151.653 46.0314C151.522 46.3564 151.295 46.584 151.035 46.779C150.775 46.9416 150.482 47.0391 150.19 47.0391C149.735 47.0391 149.312 46.8766 148.987 46.584C148.629 46.2914 148.467 45.9338 148.467 45.4787C148.467 45.2837 148.532 45.0562 148.629 44.7961L158.284 23.6338C158.447 23.2763 158.707 22.9837 159.064 22.7887C159.422 22.5936 159.779 22.4961 160.169 22.4961C160.56 22.4961 160.917 22.5936 161.275 22.7887C161.632 22.9837 161.892 23.2763 162.055 23.6338L171.71 44.7961C171.807 45.0562 171.872 45.2837 171.872 45.4787ZM155.163 38.0671H165.208L160.169 26.722L155.163 38.0671Z" fill="white"></path><path d="M195.373 45.611C195.373 46.0336 195.211 46.3587 194.886 46.6512C194.561 46.9438 194.171 47.0738 193.748 47.0738C193.098 47.0738 192.61 46.7812 192.22 46.2286L187.637 39.1095C187.117 38.2969 186.564 37.7117 185.946 37.3866C185.361 37.0616 184.581 36.899 183.606 36.899H179.737V45.2534C179.737 45.806 179.575 46.2286 179.282 46.5537C178.957 46.8788 178.535 47.0413 177.982 47.0413C177.462 47.0413 177.039 46.8788 176.714 46.5537C176.389 46.2286 176.227 45.806 176.227 45.2534V24.3837C176.227 23.8636 176.389 23.441 176.682 23.1485C176.974 22.8559 177.429 22.6934 177.982 22.6934H186.499C189.164 22.6934 191.212 23.2785 192.61 24.4813C194.008 25.684 194.723 27.4069 194.723 29.6824C194.723 31.5678 194.171 33.1282 193.098 34.2985C192.025 35.4687 190.497 36.2164 188.514 36.5415C189.099 36.704 189.652 36.9966 190.14 37.3866C190.627 37.8092 191.082 38.3619 191.537 39.1095L195.081 44.6683C195.276 44.9608 195.373 45.2534 195.373 45.611ZM186.109 34.0384C187.897 34.0384 189.197 33.6808 190.075 32.9982C190.92 32.3155 191.375 31.2103 191.375 29.7474C191.375 28.2846 190.952 27.2119 190.107 26.5292C189.262 25.8466 187.929 25.5215 186.141 25.5215H179.672V34.0384H186.109Z" fill="white"></path><path d="M223.264 23.0162C223.589 23.3413 223.752 23.7639 223.752 24.3165V45.3812C223.752 45.9013 223.622 46.3239 223.329 46.6165C223.037 46.9091 222.647 47.0716 222.159 47.0716C221.671 47.0716 221.314 46.9091 221.021 46.6165C220.761 46.3239 220.599 45.9013 220.599 45.3812V29.4527L213.87 42.228C213.447 43.0407 212.862 43.4308 212.179 43.4308C211.497 43.4308 210.944 43.0407 210.489 42.228L203.727 29.5827V45.3812C203.727 45.9013 203.597 46.3239 203.305 46.6165C203.045 46.9091 202.655 47.0716 202.135 47.0716C201.647 47.0716 201.257 46.9091 200.997 46.6165C200.704 46.2914 200.574 45.9013 200.574 45.4137V24.284C200.574 23.7639 200.737 23.3413 201.062 22.9837C201.387 22.6586 201.777 22.4961 202.297 22.4961C203.012 22.4961 203.565 22.9187 204.02 23.7314L212.212 39.3999L220.339 23.7314C220.761 22.9187 221.346 22.4961 222.029 22.4961C222.517 22.4961 222.939 22.6586 223.264 23.0162Z" fill="white"></path></svg> 